<svg width="64" height="64" viewBox="0 0 64 64" fill="none" xmlns="http://www.w3.org/2000/svg">
<circle cx="32" cy="32" r="32" fill="white"/>
<path d="M20.6882 20.0394C20.8094 20.0036 20.9365 19.992 21.0622 20.0054C21.1878 20.0188 21.3096 20.0568 21.4206 20.1173C21.5316 20.1778 21.6295 20.2595 21.7089 20.3579C21.7882 20.4563 21.8474 20.5693 21.883 20.6906L22.588 23.0777H41.3746C43.7334 23.0777 45.5345 25.2789 44.855 27.5775L42.7335 34.7568C42.2822 36.2875 40.8478 37.308 39.253 37.308H27.5157C25.921 37.308 24.4878 36.2875 24.0353 34.7568L20.0396 21.2355C19.9672 20.991 19.9949 20.7278 20.1165 20.5037C20.2381 20.2797 20.4438 20.1118 20.6882 20.0394ZM25.1275 42.1155C25.1275 41.3505 25.4314 40.6168 25.9723 40.0758C26.5132 39.5349 27.2469 39.231 28.0118 39.231C28.7768 39.231 29.5105 39.5349 30.0514 40.0758C30.5923 40.6168 30.8962 41.3505 30.8962 42.1155C30.8962 42.8805 30.5923 43.6142 30.0514 44.1551C29.5105 44.6961 28.7768 45 28.0118 45C27.2469 45 26.5132 44.6961 25.9723 44.1551C25.4314 43.6142 25.1275 42.8805 25.1275 42.1155ZM35.3829 42.1155C35.3829 41.7367 35.4575 41.3616 35.6025 41.0116C35.7474 40.6617 35.9599 40.3437 36.2277 40.0758C36.4955 39.808 36.8135 39.5955 37.1635 39.4505C37.5134 39.3056 37.8885 39.231 38.2672 39.231C38.646 39.231 39.0211 39.3056 39.371 39.4505C39.721 39.5955 40.0389 39.808 40.3068 40.0758C40.5746 40.3437 40.7871 40.6617 40.932 41.0116C41.077 41.3616 41.1516 41.7367 41.1516 42.1155C41.1516 42.8805 40.8477 43.6142 40.3068 44.1551C39.7659 44.6961 39.0322 45 38.2672 45C37.5023 45 36.7686 44.6961 36.2277 44.1551C35.6868 43.6142 35.3829 42.8805 35.3829 42.1155Z" fill="#0026E7"/>
</svg>
