<svg width="10" height="13" viewBox="0 0 10 13" fill="none" xmlns="http://www.w3.org/2000/svg">
<path d="M8.28248 5.22474H7.14676V1.69532C7.14676 1.30709 6.82534 0.989441 6.43248 0.989441H3.57534C3.18248 0.989441 2.86105 1.30709 2.86105 1.69532V5.22474H1.72533C1.08962 5.22474 0.768192 5.98709 1.21819 6.43179L4.49676 9.67179C4.77533 9.94709 5.22533 9.94709 5.50391 9.67179L8.78248 6.43179C9.23248 5.98709 8.91819 5.22474 8.28248 5.22474ZM0.00390625 12.2836C0.00390625 12.6718 0.325335 12.9894 0.718192 12.9894H9.28962C9.68248 12.9894 10.0039 12.6718 10.0039 12.2836C10.0039 11.8953 9.68248 11.5777 9.28962 11.5777H0.718192C0.325335 11.5777 0.00390625 11.8953 0.00390625 12.2836Z" fill="black"/>
</svg>
